<svg width="386" height="346" viewBox="0 0 386 346" fill="none" xmlns="http://www.w3.org/2000/svg">
<path d="M97.7804 277.583H70.444V248.75H21.0281L49.0655 205.5H35.0468L84.1122 133.417L133.178 205.5H119.159L147.196 248.75H97.7804V277.583ZM47.3131 234.333H75.3505H62.0327H106.192H92.8739H120.911H47.3131ZM47.3131 234.333H120.911L92.8739 191.083H106.192L84.1122 158.646L62.0327 191.083H75.3505L47.3131 234.333Z" fill="#ABABAB"/>
<path d="M118.447 291.66V258.39H160.173L125.156 137.178C119.111 133.853 114.21 129.029 110.453 122.707C106.696 116.386 104.818 109.4 104.818 101.749C104.818 90.7517 108.466 81.3941 115.762 73.6764C123.056 65.9611 131.901 62.1034 142.298 62.1034C150.896 62.1034 158.418 64.8065 164.865 70.2128C171.311 75.619 175.724 82.527 178.102 90.9367H224.861V72.9159C224.861 69.8475 225.839 67.2778 227.795 65.2066C229.753 63.1378 232.182 62.1034 235.083 62.1034C236.864 62.1034 238.523 62.584 240.061 63.5451C241.599 64.5062 242.787 65.8553 243.625 67.5925V69.5316L267.582 45.9135C269.54 43.8423 271.807 42.5532 274.383 42.0462C276.961 41.5368 279.481 41.9573 281.944 43.3077L334.314 68.9802C336.515 70.1431 338.083 71.8286 339.016 74.0368C339.952 76.2473 339.94 78.4423 338.979 80.6216C337.877 82.9523 336.283 84.4456 334.195 85.1016C332.108 85.7575 330.032 85.5773 327.97 84.561L277.596 59.9409L245.305 91.6576V111.841L277.596 142.837L327.97 118.217C330.032 117.2 332.143 117.057 334.301 117.788C336.459 118.518 338.018 119.973 338.979 122.152C340.078 124.481 340.126 126.713 339.122 128.849C338.118 130.983 336.515 132.632 334.314 133.797L281.944 159.913C279.481 161.264 276.961 161.661 274.383 161.106C271.807 160.551 269.54 159.285 267.582 157.307L243.625 133.963V135.906C242.787 137.348 241.599 138.622 240.061 139.73C238.523 140.84 236.864 141.395 235.083 141.395C232.182 141.395 229.753 140.359 227.795 138.288C225.839 136.219 224.861 133.651 224.861 130.583V112.562H178.102C177.421 115.13 176.486 117.626 175.298 120.048C174.108 122.467 172.701 124.685 171.076 126.701L238.173 258.39H288.813V291.66H118.447ZM142.298 119.77C147.034 119.77 151.057 118.018 154.367 114.515C157.679 111.012 159.335 106.757 159.335 101.749C159.335 96.7394 157.679 92.4829 154.367 88.9797C151.057 85.4788 147.034 83.7284 142.298 83.7284C137.562 83.7284 133.539 85.4788 130.229 88.9797C126.918 92.4829 125.262 96.7394 125.262 101.749C125.262 106.757 126.918 111.012 130.229 114.515C133.539 118.018 137.562 119.77 142.298 119.77ZM181.298 258.39H214.69L154.513 140.007C153.814 140.469 152.712 140.862 151.208 141.186C149.707 141.51 148.431 141.58 147.382 141.395L181.298 258.39Z" fill="#ABABAB"/>
</svg>
